<svg xmlns="http://www.w3.org/2000/svg" version="1" viewbox="0 0 550 960">
		<defs>
				<symbol id="name" viewbox="0 0 477.273 1000">
						<path d="M230.023 901.964c1.175-68.046.607-75.495-5.755-75.495-12.596 0-18.798 18.027-18.953 55.086-.114 27.375-2.2 39.455-7.583 43.923-6.517 5.407-7.426.07-7.426-43.596 0-54.25 4.673-65.316 27.58-65.316 9.668 0 12.024-2.538 12.024-12.953v-12.952l-33.416 3.555c-18.378 1.956-35.086 4.575-37.128 5.82-2.042 1.245-3.713 23.023-3.713 48.396 0 45.04-7.55 76.898-20.056 84.627-9.97 6.162-11.11-2.324-3.165-23.56 8.603-22.996 13.175-121.696 6.54-141.2-2.775-8.16-1.875-11.137 3.365-11.137 9.172 0 20.028 12.946 16.137 19.243-5.35 8.655 6.076 10.838 39.044 7.46 27.103-2.776 32.392-4.823 32.392-12.535 0-6.5-3.602-9.217-12.218-9.217-8.267 0-14.5-4.355-19.275-13.468-6.91-13.19-8.004-15.312-47.187-11.947-27.258 2.34-40.13-.45-40.13-3.277 0-7.155 233.95-13.51 245.716-6.675 7.837 4.554 6.24 5.51-10.57 6.328-10.89.53-30.384.392-43.317-.305-22.252-1.2-23.515-.587-23.515 11.39 0 12.727-13.563 24.29-25.496 21.735-3.353-.717-6.92 2.443-7.925 7.023-1.38 6.28 2.2 8.714 14.557 9.9 34.015 3.267 53.935-1.355 59.62-13.83 8.79-19.295 18.69-14.735 17.793 8.193-.432 11.008-2.643 21.164-4.915 22.57-5.557 3.433-5.232 29.903.598 48.645 16.583 53.316 20.293 69.242 17.703 75.99-2.502 6.524-4.175 6.25-11.79-1.92-9.757-10.475-19.105-47.606-23.542-93.52-1.58-16.337-3.22-29.956-3.648-30.264-.428-.307-15.814-2.04-34.193-3.85-30.946-3.047-33.416-2.577-33.416 6.356 0 6.716 4.563 10.647 15.02 12.944 22.955 5.042 28.492 18.61 28.772 70.507.25 46.505-5.62 61.013-11.02 27.228-1.633-10.21-2.882-32.2-2.777-48.865.17-27.225-.926-30.59-10.81-33.176-6.05-1.583-13.08-1.593-15.618-.023-2.54 1.57-3.976 20.955-3.192 43.078 2.24 63.14.74 77.353-8.16 77.353-6.605 0-7.66-7.317-6.952-48.266zm33.62-160.89c1.387-7.297-2.184-8.664-22.644-8.664-26.696 0-31.585 2.335-27.452 13.106 4.218 10.992 47.9 7.118 50.096-4.442zm-100.462-28.3c-1.962-3.176-2.756-6.587-1.763-7.58 3.915-3.915 143.372-5.485 145.748-1.64 1.395 2.257-13.685 5.836-30.863 6.187-36.73.752-44.516 3.69-81.684 5.07-19.656.73-28.94 2.005-31.437-2.035zm-39.705-118.313c-5.446-1.725 16.832-4.252 49.505-5.613l59.405-2.475 1.497-25.99 1.496-25.99-38.625-.076c-21.244-.042-38.355 5.71-46.05-4.875-3.565-4.9 6.972-4.82 38.366-4.873 45.523-.076 45.79-.148 45.79-12.452 0-12.285-.33-12.376-44.554-12.376-30.034 0-44.554-1.84-44.554-5.64 0-3.9 8.02-4.678 25.99-2.52 14.294 1.717 61.208 3.142 104.252 3.165 56.438.03 77.307 1.587 74.84 5.58-2.373 3.84-16.887 4.485-47.322 2.105l-42.455.176-1.444 8.766c0 12.014 1.336 12.495 45.792 16.46 0 0 41.034.64 41.458 3.362-16.187 9.946-39.763 7.53-39.763 7.53l-49.873-1.857-3.502 24.596c-1.926 13.527-2.328 25.78-.893 27.227 1.435 1.448 39.166.523 66.684 4.006 18.936 12.06 5.17 10.14-75.477 5.305-61.153-3.664-125.953 7.576-120.565-3.54zm42.08-130.662l-17.328-6.138v-42.08c0-39.868.585-42.16 11.14-43.66 9.545-1.356 11.137.667 11.137 14.15 0 13.807 1.364 15.406 11.14 13.06 6.125-1.472 19.505-4.19 29.732-6.045 16.972-3.076 18.864-5.05 21.672-22.615 2.6-16.26 4.95-19.245 15.155-19.245 10.276 0 11.547 1.66 8.526 11.138-7.164 22.472-5.215 25.513 20.21 31.544 40.61 9.634 43.36 9.077 39.603-8.03-2.966-13.505-2.105-14.85 9.508-14.85 14.165 0 15.15 4.048 13.226 54.455-1.556 40.773-3.753 41.878-86.02 43.267-46.284.78-76.307-.915-87.702-4.952zm149.54-12.02c4.88-4.415 8.874-9.91 8.874-12.212 0-2.3-37.03-4.183-82.288-4.183h-82.286l7.36 11.138c5.99 9.063 13.257 11.6 38.97 13.615 52.966 4.148 99.48.594 109.37-8.356zm8.874-30.913c0-11.1-4.477-12.736-54.456-19.916-25.48-3.662-42.555-3.757-54.423-.303-9.51 2.768-23.302 5.033-30.647 5.033-14.8 0-21.208 6.617-17.008 17.564 2.248 5.857 16.995 7.188 79.646 7.188 72.695 0 76.89-.522 76.89-9.567zm-134.4-155.46c-11.98-16.51-18.893-46.035-14.426-61.61 2.142-7.468 12.22-21.904 22.395-32.08l18.5-18.5-14.104-16.974c-7.758-9.334-16.854-18.137-20-17.33-13.872 3.56-16.163 7.63-6.202 17.306 8.388 8.147 1.642 16.332-6.302 7.997-12.578-13.197-21.673-12.27-29.307 15.18-3.224 11.596-5.452 24.125-4.77 27.894 2.75 15.246-4.735 30.275-15.08 30.275-9.51 0-10.23-2.15-8.11-24.218 1.28-13.32 7.154-33.478 13.053-44.795 8.083-15.508 9.494-22.876 5.728-29.912-11.472-21.436.135-47.054 25.32-55.882 4.42-1.55 9.56-10.932 11.42-20.85 2.5-13.32 5.572-17.612 11.764-16.432 4.61.878 7.77 8.618 7.346 15.042-.747 11.328 5.957 9.488 25.758 6.518 13.08-1.96 18.14-1.192 20.096 1.975 1.763 2.852.924 5.6-3.63 5.6-7.014 0-4.67 3.01-1.826 21.983 3.32 22.144 3.158 22.48-14.49 29.853l-17.85 7.457 14.486 12.19c18.938 15.934 23.47 41.107 8.433 46.824-5.8 2.206-13.617 7.71-17.37 12.23-9.238 11.132-7.752 53.54 2.42 69.063 13.49 20.588 1.134 31.026-13.254 11.196zM169.066 113.06c3.944-3.944 4.016-9.88.256-21.04-6.792-20.154-6.197-19.72-18.197-13.298-12.69 6.793-13.688 27.48-1.66 34.484 11.142 6.49 12.978 6.477 19.6-.147zm37.328-16.25c11.475-8.71 10.945-19.212-1.54-30.51-8.732-7.903-6.942-5.922-14.775-2.005-8.983 4.49-5.637 13.218-1.604 28.268 3.424 12.777 5.907 13.366 17.92 4.247zm64.356 153.31c-14.406-6.562-16.126-9.552-16.456-28.606-.202-11.703-1.285-26.178-2.406-32.167-1.12-5.99-.042-12.123 2.397-13.63 6.855-4.237 20.18 2.495 20.18 10.197 0 7.448 13.485 9.415 49.504 7.217 21.3-1.298 31.84-7.705 26.608-16.173-1.343-2.172 2.216-3.95 7.907-3.95 12.627 0 16.21 8.438 16.918 39.85.365 16.134-2.086 26.78-7.383 32.08-11.45 11.452-75.954 14.89-97.27 5.183zm87.02-24.497c2.452-21.444-3.78-24.25-45.222-20.367-31.35 2.938-37.617 5.036-39.785 13.325-5.515 21.09.408 24.204 43.145 22.687l40.24-1.428 1.623-14.217zm-58.554-66.297c-34.817-2.04-42.433-4.953-48.656-18.61-8.08-17.735-7.25-29.174 3.037-41.88 7.447-9.196 15.016-11.23 48.137-12.94 48.497-2.507 56.888-5.04 56.888-17.18 0-8.53-3.696-9.57-34.034-9.57-57.728 0-74.553-6.93-66.672-27.47 4.197-10.936 18.735-6.62 20.556 6.103 1.348 9.425 4.11 10.498 23.043 8.955 11.83-.964 32.28-.213 45.44 1.67 25.362 3.628 30.233 10.12 24.558 32.733-2.648 10.55-5.984 11.47-49.836 13.764-48.802 2.553-62.064 7.805-62.064 24.583 0 23.797 8.09 28.77 46.798 28.77 42.98 0 52.212-2.72 52.212-15.38 0-8.433-4.065-9.372-40.594-9.372-28.134 0-39.012-1.582-35.44-5.154 3.036-3.036 23.296-4.563 49.258-3.714l44.103 1.442 1.594 13.913c.877 7.653-.893 16.913-3.935 20.578-5.906 7.115-37.986 10.892-74.394 8.758z"
						/>
				</symbol>
				<symbol id="background" viewbox="0 0 550 960">
						<image xlink:href="https://s3-us-west-2.amazonaws.com/s.cdpn.io/73058/Qin-Shihuang-background_cleaned.svg" x="0" y="0" height="960" width="550" />
				</symbol>
		</defs>
		<use xlink:href="#background"></use>
		<use xlink:href="#name"></use>

</svg>
